<svg xmlns="http://www.w3.org/2000/svg" width="7pt" height="8pt" viewBox="0 0 7 8"><path d="M4.898 4.75c-.445 0-.664.25-1.398.25-.734 0-.95-.25-1.398-.25C.942 4.75 0 5.691 0 6.852v.398c0 .414.336.75.75.75h5.5A.75.75 0 007 7.25v-.398c0-1.16-.941-2.102-2.102-2.102zm1.352 2.5H.75v-.398c0-.747.605-1.352 1.352-1.352.226 0 .597.25 1.398.25.809 0 1.172-.25 1.398-.25.747 0 1.352.605 1.352 1.352zM3.5 4.5a2.25 2.25 0 10-.001-4.501A2.25 2.25 0 003.5 4.5zm0-3.75a1.5 1.5 0 110 3 1.5 1.5 0 010-3zm0 0" id="surface1"/></svg>